# xmcd CD database file
#
# Track frame offsets:
#	150
#	11710
#	20169
#	30735
#	39470
#	55697
#	69622
#	79290
#	83505
#	96535
#	110102
#	118737
#	135897
#	145227
#	162760
#	172375
#	184625
#	194422
#	206087
#	216342
#	233732
#	244712
#	260755
#	272925
#
# Disc length: 3752 seconds
#
# Revision: 0
# Processed by: cddbd v1.4PL0 Copyright (c) Steve Scherf et al.
# Submitted via: CDex 1.51
#
DISCID=690ea618
DTITLE=Confrey, Zez - Zez Confrey Piano Music
DYEAR=1998
DGENRE=Jazz
TTITLE0=Kitten on the Keys
TTITLE1=Dizzy Fingers
TTITLE2=Meandering
TTITLE3=African Suite: I. High Hattin'
TTITLE4=African Suite: II. Kinda Careless
TTITLE5=African Suite: III. Mississippi Shivers
TTITLE6=Jay Walk
TTITLE7=Sparkling Waters
TTITLE8=Wise Cracker Suite: I. Yokel Opus
TTITLE9=Wise Cracker Suite: II. Mighty Lackawanna
TTITLE10=Wise Cracker Suite: III. The Sheriff's Lament
TTITLE11=Amazonian
TTITLE12=Blue tornado
TTITLE13=Three Little Oddities: I. Impromptu
TTITLE14=Three Little Oddities: II. Romanza
TTITLE15=Three Little Oddities: III. Novelette
TTITLE16=Coaxing the Piano
TTITLE17=Stumbling (Paraphrase)
TTITLE18=Moods of a New Yorker: I. At Dusk
TTITLE19=Moods of a New Yorker: II. Movie Ballet
TTITLE20=Moods of a New Yorker: III. Relaxation
TTITLE21=Moods of a New Yorker: IV. After Theatre (Tango)
TTITLE22=Rhythm Venture
TTITLE23=Fourth Dimension
EXTD=YEAR: 1998
EXTT0=
EXTT1=
EXTT2=
EXTT3=
EXTT4=
EXTT5=
EXTT6=
EXTT7=
EXTT8=
EXTT9=
EXTT10=
EXTT11=
EXTT12=
EXTT13=
EXTT14=
EXTT15=
EXTT16=
EXTT17=
EXTT18=
EXTT19=
EXTT20=
EXTT21=
EXTT22=
EXTT23=
PLAYORDER=
